<?xml version="1.0" encoding="iso-8859-1"?>
<!-- Generator: Adobe Illustrator 19.0.0, SVG Export Plug-In . SVG Version: 6.00 Build 0)  -->
<svg version="1.1" id="Layer_1" xmlns="http://www.w3.org/2000/svg" xmlns:xlink="http://www.w3.org/1999/xlink" x="0px" y="0px"
	 viewBox="0 0 512 512" style="enable-background:new 0 0 512 512;" xml:space="preserve">
<path style="fill:#D2555A;" d="M460.138,300.138H228.4V0h231.737c6.827,0,11.071,7.418,7.608,13.303l-80.449,136.766l80.45,136.766
	C471.208,292.719,466.966,300.138,460.138,300.138z"/>
<path style="fill:#FF6464;" d="M299.021,344.276H104.814c-4.875,0-8.828-3.953-8.828-8.828V52.966c0-4.875,3.953-8.828,8.828-8.828
	h203.034v291.31C307.848,340.323,303.896,344.276,299.021,344.276z"/>
<polygon style="fill:#BE414B;" points="228.4,0 307.848,44.138 228.4,44.138 "/>
<path style="fill:#D2AA82;" d="M69.504,26.483h-8.828c-4.875,0-8.828,3.953-8.828,8.828v467.862c0,4.875,3.953,8.828,8.828,8.828
	h8.828c4.875,0,8.828-3.953,8.828-8.828V35.31C78.331,30.435,74.379,26.483,69.504,26.483z"/>
<g>
	<path style="fill:#BE414B;" d="M51.848,79.448h44.138V61.793H51.848c-4.875,0-8.828,3.953-8.828,8.828l0,0
		C43.021,75.496,46.972,79.448,51.848,79.448z"/>
	<path style="fill:#BE414B;" d="M51.848,326.621h44.138v-17.655H51.848c-4.875,0-8.828,3.953-8.828,8.828l0,0
		C43.021,322.668,46.972,326.621,51.848,326.621z"/>
</g>
<path style="fill:#BE876B;" d="M78.331,44.138H51.848V35.31c0-4.875,3.953-8.828,8.828-8.828h8.828c4.875,0,8.828,3.953,8.828,8.828
	V44.138z"/>
<g>
</g>
<g>
</g>
<g>
</g>
<g>
</g>
<g>
</g>
<g>
</g>
<g>
</g>
<g>
</g>
<g>
</g>
<g>
</g>
<g>
</g>
<g>
</g>
<g>
</g>
<g>
</g>
<g>
</g>
</svg>
